<mxfile host="Electron" agent="Mozilla/5.0 (Windows NT 10.0; Win64; x64) AppleWebKit/537.36 (KHTML, like Gecko) draw.io/27.0.9 Chrome/134.0.6998.205 Electron/35.4.0 Safari/537.36" version="27.0.9">
  <diagram name="Page-1" id="k727PObxVlIZLDin5Zud">
    <mxGraphModel dx="374" dy="595" grid="1" gridSize="10" guides="1" tooltips="1" connect="1" arrows="1" fold="1" page="1" pageScale="1" pageWidth="850" pageHeight="1100" math="0" shadow="0">
      <root>
        <mxCell id="0" />
        <mxCell id="1" parent="0" />
        <mxCell id="uD_-5Bl5MEh1qfHZ1Yob-1" value="&lt;font style=&quot;font-size: 24px;&quot;&gt;&lt;b&gt;Data Flow Diagram&lt;/b&gt;&lt;/font&gt;" style="text;html=1;align=center;verticalAlign=middle;whiteSpace=wrap;rounded=0;" vertex="1" parent="1">
          <mxGeometry x="2" y="70" width="250" height="30" as="geometry" />
        </mxCell>
        <mxCell id="uD_-5Bl5MEh1qfHZ1Yob-2" value="" style="rounded=0;whiteSpace=wrap;html=1;dashed=1;fillColor=none;" vertex="1" parent="1">
          <mxGeometry x="30" y="150" width="120" height="370" as="geometry" />
        </mxCell>
        <mxCell id="uD_-5Bl5MEh1qfHZ1Yob-3" value="Sources" style="text;html=1;align=center;verticalAlign=middle;whiteSpace=wrap;rounded=0;fillColor=default;" vertex="1" parent="1">
          <mxGeometry x="60" y="130" width="60" height="30" as="geometry" />
        </mxCell>
        <mxCell id="uD_-5Bl5MEh1qfHZ1Yob-30" style="edgeStyle=orthogonalEdgeStyle;rounded=0;orthogonalLoop=1;jettySize=auto;html=1;entryX=0;entryY=0.5;entryDx=0;entryDy=0;" edge="1" parent="1" source="uD_-5Bl5MEh1qfHZ1Yob-4" target="uD_-5Bl5MEh1qfHZ1Yob-8">
          <mxGeometry relative="1" as="geometry" />
        </mxCell>
        <mxCell id="uD_-5Bl5MEh1qfHZ1Yob-31" style="edgeStyle=orthogonalEdgeStyle;rounded=0;orthogonalLoop=1;jettySize=auto;html=1;" edge="1" parent="1" source="uD_-5Bl5MEh1qfHZ1Yob-4" target="uD_-5Bl5MEh1qfHZ1Yob-9">
          <mxGeometry relative="1" as="geometry" />
        </mxCell>
        <mxCell id="uD_-5Bl5MEh1qfHZ1Yob-32" style="edgeStyle=orthogonalEdgeStyle;rounded=0;orthogonalLoop=1;jettySize=auto;html=1;entryX=0;entryY=0.5;entryDx=0;entryDy=0;" edge="1" parent="1" source="uD_-5Bl5MEh1qfHZ1Yob-4" target="uD_-5Bl5MEh1qfHZ1Yob-10">
          <mxGeometry relative="1" as="geometry" />
        </mxCell>
        <mxCell id="uD_-5Bl5MEh1qfHZ1Yob-4" value="&lt;b&gt;CRM&lt;/b&gt;" style="image;html=1;image=img/lib/clip_art/general/Full_Folder_128x128.png" vertex="1" parent="1">
          <mxGeometry x="50" y="210" width="80" height="80" as="geometry" />
        </mxCell>
        <mxCell id="uD_-5Bl5MEh1qfHZ1Yob-33" style="edgeStyle=orthogonalEdgeStyle;rounded=0;orthogonalLoop=1;jettySize=auto;html=1;entryX=0;entryY=0.5;entryDx=0;entryDy=0;" edge="1" parent="1" source="uD_-5Bl5MEh1qfHZ1Yob-5" target="uD_-5Bl5MEh1qfHZ1Yob-11">
          <mxGeometry relative="1" as="geometry" />
        </mxCell>
        <mxCell id="uD_-5Bl5MEh1qfHZ1Yob-34" style="edgeStyle=orthogonalEdgeStyle;rounded=0;orthogonalLoop=1;jettySize=auto;html=1;entryX=0;entryY=0.5;entryDx=0;entryDy=0;" edge="1" parent="1" source="uD_-5Bl5MEh1qfHZ1Yob-5" target="uD_-5Bl5MEh1qfHZ1Yob-12">
          <mxGeometry relative="1" as="geometry" />
        </mxCell>
        <mxCell id="uD_-5Bl5MEh1qfHZ1Yob-35" style="edgeStyle=orthogonalEdgeStyle;rounded=0;orthogonalLoop=1;jettySize=auto;html=1;entryX=0;entryY=0.5;entryDx=0;entryDy=0;" edge="1" parent="1" source="uD_-5Bl5MEh1qfHZ1Yob-5" target="uD_-5Bl5MEh1qfHZ1Yob-13">
          <mxGeometry relative="1" as="geometry" />
        </mxCell>
        <mxCell id="uD_-5Bl5MEh1qfHZ1Yob-5" value="&lt;b&gt;ERP&lt;/b&gt;" style="image;html=1;image=img/lib/clip_art/general/Full_Folder_128x128.png" vertex="1" parent="1">
          <mxGeometry x="50" y="340" width="80" height="80" as="geometry" />
        </mxCell>
        <mxCell id="uD_-5Bl5MEh1qfHZ1Yob-6" value="" style="rounded=1;whiteSpace=wrap;html=1;fillColor=none;strokeColor=#d79b00;" vertex="1" parent="1">
          <mxGeometry x="190" y="180" width="170" height="340" as="geometry" />
        </mxCell>
        <mxCell id="uD_-5Bl5MEh1qfHZ1Yob-14" value="" style="rounded=1;whiteSpace=wrap;html=1;fillColor=none;strokeColor=light-dark(#d2d1d1, #959595);fontColor=#333333;" vertex="1" parent="1">
          <mxGeometry x="425" y="180" width="170" height="340" as="geometry" />
        </mxCell>
        <mxCell id="uD_-5Bl5MEh1qfHZ1Yob-22" value="" style="rounded=1;whiteSpace=wrap;html=1;fillColor=none;strokeColor=#F3D264;" vertex="1" parent="1">
          <mxGeometry x="660" y="180" width="170" height="340" as="geometry" />
        </mxCell>
        <mxCell id="uD_-5Bl5MEh1qfHZ1Yob-7" value="&lt;b&gt;&lt;font style=&quot;font-size: 16px;&quot;&gt;Bronze Layer&lt;/font&gt;&lt;/b&gt;" style="rounded=1;whiteSpace=wrap;html=1;fillColor=#ffe6cc;strokeColor=#d79b00;" vertex="1" parent="1">
          <mxGeometry x="190" y="140" width="170" height="35" as="geometry" />
        </mxCell>
        <mxCell id="uD_-5Bl5MEh1qfHZ1Yob-15" value="&lt;b&gt;&lt;font style=&quot;font-size: 16px;&quot;&gt;Silver Layer&lt;/font&gt;&lt;/b&gt;" style="rounded=1;whiteSpace=wrap;html=1;fillColor=#f5f5f5;strokeColor=#666666;fontColor=#333333;" vertex="1" parent="1">
          <mxGeometry x="425" y="140" width="170" height="35" as="geometry" />
        </mxCell>
        <mxCell id="uD_-5Bl5MEh1qfHZ1Yob-23" value="&lt;b&gt;&lt;font style=&quot;font-size: 16px;&quot;&gt;Gold Layer&lt;/font&gt;&lt;/b&gt;" style="rounded=1;whiteSpace=wrap;html=1;fillColor=#fff2cc;strokeColor=#d6b656;" vertex="1" parent="1">
          <mxGeometry x="660" y="140" width="170" height="35" as="geometry" />
        </mxCell>
        <mxCell id="uD_-5Bl5MEh1qfHZ1Yob-36" style="edgeStyle=orthogonalEdgeStyle;rounded=0;orthogonalLoop=1;jettySize=auto;html=1;entryX=0;entryY=0.5;entryDx=0;entryDy=0;" edge="1" parent="1" source="uD_-5Bl5MEh1qfHZ1Yob-8" target="uD_-5Bl5MEh1qfHZ1Yob-16">
          <mxGeometry relative="1" as="geometry" />
        </mxCell>
        <mxCell id="uD_-5Bl5MEh1qfHZ1Yob-8" value="crm_sales_details" style="rounded=1;whiteSpace=wrap;html=1;fillColor=#ffe6cc;strokeColor=#d79b00;" vertex="1" parent="1">
          <mxGeometry x="215" y="200" width="120" height="35" as="geometry" />
        </mxCell>
        <mxCell id="uD_-5Bl5MEh1qfHZ1Yob-16" value="crm_sales_details" style="rounded=1;whiteSpace=wrap;html=1;fillColor=#f5f5f5;strokeColor=#666666;fontColor=#333333;" vertex="1" parent="1">
          <mxGeometry x="450" y="200" width="120" height="35" as="geometry" />
        </mxCell>
        <mxCell id="uD_-5Bl5MEh1qfHZ1Yob-24" value="fact_sale" style="rounded=1;whiteSpace=wrap;html=1;fillColor=#fff2cc;strokeColor=#d6b656;" vertex="1" parent="1">
          <mxGeometry x="685" y="210" width="120" height="35" as="geometry" />
        </mxCell>
        <mxCell id="uD_-5Bl5MEh1qfHZ1Yob-38" style="edgeStyle=orthogonalEdgeStyle;rounded=0;orthogonalLoop=1;jettySize=auto;html=1;entryX=0;entryY=0.5;entryDx=0;entryDy=0;" edge="1" parent="1" source="uD_-5Bl5MEh1qfHZ1Yob-9" target="uD_-5Bl5MEh1qfHZ1Yob-17">
          <mxGeometry relative="1" as="geometry" />
        </mxCell>
        <mxCell id="uD_-5Bl5MEh1qfHZ1Yob-9" value="crm_cust_info" style="rounded=1;whiteSpace=wrap;html=1;fillColor=#ffe6cc;strokeColor=#d79b00;" vertex="1" parent="1">
          <mxGeometry x="215" y="240" width="120" height="35" as="geometry" />
        </mxCell>
        <mxCell id="uD_-5Bl5MEh1qfHZ1Yob-17" value="crm_cust_info" style="rounded=1;whiteSpace=wrap;html=1;fillColor=#f5f5f5;strokeColor=#666666;fontColor=#333333;" vertex="1" parent="1">
          <mxGeometry x="450" y="240" width="120" height="35" as="geometry" />
        </mxCell>
        <mxCell id="uD_-5Bl5MEh1qfHZ1Yob-25" value="dim_customers" style="rounded=1;whiteSpace=wrap;html=1;fillColor=#fff2cc;strokeColor=#d6b656;" vertex="1" parent="1">
          <mxGeometry x="685" y="315" width="120" height="35" as="geometry" />
        </mxCell>
        <mxCell id="uD_-5Bl5MEh1qfHZ1Yob-39" style="edgeStyle=orthogonalEdgeStyle;rounded=0;orthogonalLoop=1;jettySize=auto;html=1;" edge="1" parent="1" source="uD_-5Bl5MEh1qfHZ1Yob-10" target="uD_-5Bl5MEh1qfHZ1Yob-18">
          <mxGeometry relative="1" as="geometry" />
        </mxCell>
        <mxCell id="uD_-5Bl5MEh1qfHZ1Yob-10" value="crm_prd_info" style="rounded=1;whiteSpace=wrap;html=1;fillColor=#ffe6cc;strokeColor=#d79b00;" vertex="1" parent="1">
          <mxGeometry x="215" y="280" width="120" height="35" as="geometry" />
        </mxCell>
        <mxCell id="uD_-5Bl5MEh1qfHZ1Yob-18" value="crm_prd_info" style="rounded=1;whiteSpace=wrap;html=1;fillColor=#f5f5f5;strokeColor=#666666;fontColor=#333333;" vertex="1" parent="1">
          <mxGeometry x="450" y="280" width="120" height="35" as="geometry" />
        </mxCell>
        <mxCell id="uD_-5Bl5MEh1qfHZ1Yob-26" value="dim_products" style="rounded=1;whiteSpace=wrap;html=1;fillColor=#fff2cc;strokeColor=#d6b656;" vertex="1" parent="1">
          <mxGeometry x="685" y="392" width="120" height="35" as="geometry" />
        </mxCell>
        <mxCell id="uD_-5Bl5MEh1qfHZ1Yob-40" style="edgeStyle=orthogonalEdgeStyle;rounded=0;orthogonalLoop=1;jettySize=auto;html=1;entryX=0;entryY=0.5;entryDx=0;entryDy=0;" edge="1" parent="1" source="uD_-5Bl5MEh1qfHZ1Yob-11" target="uD_-5Bl5MEh1qfHZ1Yob-19">
          <mxGeometry relative="1" as="geometry" />
        </mxCell>
        <mxCell id="uD_-5Bl5MEh1qfHZ1Yob-11" value="erp_cust_az12" style="rounded=1;whiteSpace=wrap;html=1;fillColor=#ffe6cc;strokeColor=#d79b00;" vertex="1" parent="1">
          <mxGeometry x="215" y="340" width="120" height="35" as="geometry" />
        </mxCell>
        <mxCell id="uD_-5Bl5MEh1qfHZ1Yob-19" value="erp_cust_az12" style="rounded=1;whiteSpace=wrap;html=1;fillColor=#f5f5f5;strokeColor=#666666;fontColor=#333333;" vertex="1" parent="1">
          <mxGeometry x="450" y="340" width="120" height="35" as="geometry" />
        </mxCell>
        <mxCell id="uD_-5Bl5MEh1qfHZ1Yob-41" style="edgeStyle=orthogonalEdgeStyle;rounded=0;orthogonalLoop=1;jettySize=auto;html=1;entryX=0;entryY=0.5;entryDx=0;entryDy=0;" edge="1" parent="1" source="uD_-5Bl5MEh1qfHZ1Yob-12" target="uD_-5Bl5MEh1qfHZ1Yob-20">
          <mxGeometry relative="1" as="geometry" />
        </mxCell>
        <mxCell id="uD_-5Bl5MEh1qfHZ1Yob-12" value="erp_loc_a101" style="rounded=1;whiteSpace=wrap;html=1;fillColor=#ffe6cc;strokeColor=#d79b00;" vertex="1" parent="1">
          <mxGeometry x="215" y="380" width="120" height="35" as="geometry" />
        </mxCell>
        <mxCell id="uD_-5Bl5MEh1qfHZ1Yob-20" value="erp_loc_a101" style="rounded=1;whiteSpace=wrap;html=1;fillColor=#f5f5f5;strokeColor=#666666;fontColor=#333333;" vertex="1" parent="1">
          <mxGeometry x="450" y="380" width="120" height="35" as="geometry" />
        </mxCell>
        <mxCell id="uD_-5Bl5MEh1qfHZ1Yob-42" style="edgeStyle=orthogonalEdgeStyle;rounded=0;orthogonalLoop=1;jettySize=auto;html=1;entryX=0;entryY=0.5;entryDx=0;entryDy=0;" edge="1" parent="1" source="uD_-5Bl5MEh1qfHZ1Yob-13" target="uD_-5Bl5MEh1qfHZ1Yob-21">
          <mxGeometry relative="1" as="geometry" />
        </mxCell>
        <mxCell id="uD_-5Bl5MEh1qfHZ1Yob-13" value="erp_px_cat_g1v2" style="rounded=1;whiteSpace=wrap;html=1;fillColor=#ffe6cc;strokeColor=#d79b00;" vertex="1" parent="1">
          <mxGeometry x="215" y="420" width="120" height="35" as="geometry" />
        </mxCell>
        <mxCell id="uD_-5Bl5MEh1qfHZ1Yob-21" value="erp_px_cat_g1v2" style="rounded=1;whiteSpace=wrap;html=1;fillColor=#f5f5f5;strokeColor=#666666;fontColor=#333333;" vertex="1" parent="1">
          <mxGeometry x="450" y="420" width="120" height="35" as="geometry" />
        </mxCell>
        <mxCell id="uD_-5Bl5MEh1qfHZ1Yob-43" value="" style="endArrow=classic;html=1;rounded=0;exitX=1;exitY=0.5;exitDx=0;exitDy=0;entryX=0;entryY=0.5;entryDx=0;entryDy=0;" edge="1" parent="1" source="uD_-5Bl5MEh1qfHZ1Yob-16" target="uD_-5Bl5MEh1qfHZ1Yob-24">
          <mxGeometry width="50" height="50" relative="1" as="geometry">
            <mxPoint x="590" y="410" as="sourcePoint" />
            <mxPoint x="640" y="360" as="targetPoint" />
          </mxGeometry>
        </mxCell>
        <mxCell id="uD_-5Bl5MEh1qfHZ1Yob-44" value="" style="endArrow=classic;html=1;rounded=0;exitX=1;exitY=0.5;exitDx=0;exitDy=0;entryX=0;entryY=0.5;entryDx=0;entryDy=0;jumpStyle=gap;" edge="1" parent="1" source="uD_-5Bl5MEh1qfHZ1Yob-17" target="uD_-5Bl5MEh1qfHZ1Yob-25">
          <mxGeometry width="50" height="50" relative="1" as="geometry">
            <mxPoint x="590" y="370" as="sourcePoint" />
            <mxPoint x="640" y="320" as="targetPoint" />
          </mxGeometry>
        </mxCell>
        <mxCell id="uD_-5Bl5MEh1qfHZ1Yob-45" value="" style="endArrow=classic;html=1;rounded=0;exitX=1;exitY=0.5;exitDx=0;exitDy=0;entryX=0;entryY=0.5;entryDx=0;entryDy=0;jumpStyle=gap;" edge="1" parent="1" source="uD_-5Bl5MEh1qfHZ1Yob-19" target="uD_-5Bl5MEh1qfHZ1Yob-25">
          <mxGeometry width="50" height="50" relative="1" as="geometry">
            <mxPoint x="570" y="355" as="sourcePoint" />
            <mxPoint x="685" y="430" as="targetPoint" />
          </mxGeometry>
        </mxCell>
        <mxCell id="uD_-5Bl5MEh1qfHZ1Yob-46" value="" style="endArrow=classic;html=1;rounded=0;exitX=1;exitY=0.5;exitDx=0;exitDy=0;entryX=0;entryY=0.5;entryDx=0;entryDy=0;jumpStyle=gap;" edge="1" parent="1" source="uD_-5Bl5MEh1qfHZ1Yob-20" target="uD_-5Bl5MEh1qfHZ1Yob-25">
          <mxGeometry width="50" height="50" relative="1" as="geometry">
            <mxPoint x="590" y="410" as="sourcePoint" />
            <mxPoint x="640" y="360" as="targetPoint" />
          </mxGeometry>
        </mxCell>
        <mxCell id="uD_-5Bl5MEh1qfHZ1Yob-47" value="" style="endArrow=classic;html=1;rounded=0;exitX=1;exitY=0.5;exitDx=0;exitDy=0;entryX=0;entryY=0.5;entryDx=0;entryDy=0;jumpStyle=gap;" edge="1" parent="1" source="uD_-5Bl5MEh1qfHZ1Yob-18" target="uD_-5Bl5MEh1qfHZ1Yob-26">
          <mxGeometry width="50" height="50" relative="1" as="geometry">
            <mxPoint x="590" y="410" as="sourcePoint" />
            <mxPoint x="640" y="360" as="targetPoint" />
          </mxGeometry>
        </mxCell>
        <mxCell id="uD_-5Bl5MEh1qfHZ1Yob-48" value="" style="endArrow=classic;html=1;rounded=0;exitX=1;exitY=0.5;exitDx=0;exitDy=0;entryX=0;entryY=0.5;entryDx=0;entryDy=0;jumpStyle=gap;" edge="1" parent="1" source="uD_-5Bl5MEh1qfHZ1Yob-21" target="uD_-5Bl5MEh1qfHZ1Yob-26">
          <mxGeometry width="50" height="50" relative="1" as="geometry">
            <mxPoint x="590" y="410" as="sourcePoint" />
            <mxPoint x="640" y="360" as="targetPoint" />
          </mxGeometry>
        </mxCell>
      </root>
    </mxGraphModel>
  </diagram>
</mxfile>
